{
  "title": "Dark Matter S02E13 1080p WEB-DL HEVC DD5.1 x265",
  "uid": 15861830,
  "size": 731478816,
  "categoryP": "video",
  "categoryS": "hd___tv_shows",
  "magnet": "?xt=urn:btih:66493eb672af12f5aac55691a031ccf0531adcfe&amp;dn=Dark+Matter+S02E13+1080p+WEB-DL+HEVC+DD5.1+x265&amp;tr=udp%3A%2F%2Ftracker.leechers-paradise.org%3A6969&amp;tr=udp%3A%2F%2Fzer0day.ch%3A1337&amp;tr=udp%3A%2F%2Fopen.demonii.com%3A1337&amp;tr=udp%3A%2F%2Ftracker.coppersurfer.tk%3A6969&amp;tr=udp%3A%2F%2Fexodus.desync.com%3A6969",
  "seeders": 44,
  "leechers": 4,
  "uploader": "nayhtut",
  "files": 1,
  "time": 1474307268,
  "description": "Source:Dark Matter S02E13 But First We Save the Galaxy 1080p WEB-DL DD5.1 H.264 (1.73 GB)\r\n\r\n\r\nComplete name: Dark.Matter.S02E13.But.First.We.Save.the.Galaxy.1080p.WEB-DL.HEVC.DD5.1.x265.mkv\r\nFormat                                   : Matroska\r\nFormat version                           : Version 4 / Version 2\r\nFile size                                : 698 MiB\r\nDuration                                 : 43mn 7s\r\nOverall bit rate                         : 2 262 Kbps\r\nEncoded date                             : UTC 2016-09-19 13:49:28\r\nWriting application                      : mkvmerge v9.4.0 ('Knurl') 32bit\r\nWriting library                          : libebml v1.3.4 + libmatroska v1.4.5\r\nDURATION                                 : 00:43:07.104000000\r\n\r\nVideo\r\n\r\nID                                       : 1\r\nFormat                                   : V_MPEGH/ISO/HEVC\r\nCodec ID                                 : V_MPEGH/ISO/HEVC\r\nDuration                                 : 43mn 7s\r\nBit rate                                 : 1 833 Kbps\r\nWidth                                    : 1 912 pixels\r\nHeight                                   : 1 072 pixels\r\nDisplay aspect ratio                     : 16:9\r\nFrame rate                               : 23.976 fps\r\nBits/(Pixel*Frame)                       : 0.037\r\nStream size                              : 565 MiB (81%)\r\nTitle: Dark.Matter.S02E13.But.First.We.Save.the.Galaxy.1080p.WEB-DL.HEVC.DD5.1.x265\r\nLanguage                                 : English\r\nDefault                                  : Yes\r\nForced                                   : No\r\nDURATION                                 : 00:43:07.085000000\r\n\r\nAudio\r\n\r\nID                                       : 2\r\nFormat                                   : AC-3\r\nFormat/Info                              : Audio Coding 3\r\nMode extension                           : CM (complete main)\r\nFormat settings, Endianness              : Big\r\nCodec ID                                 : A_AC3\r\nDuration                                 : 43mn 7s\r\nBit rate mode                            : Constant\r\nBit rate                                 : 384 Kbps\r\nChannel(s)                               : 6 channels\r\nChannel positions                        : Front: L C R, Side: L R, LFE\r\nSampling rate                            : 48.0 KHz\r\nBit depth                                : 16 bits\r\nCompression mode                         : Lossy\r\nStream size                              : 118 MiB (17%)\r\nTitle                                    : AC-3 5.1\r\nLanguage                                 : English\r\nDefault                                  : Yes\r\nForced                                   : No",
  "parsed": {
    "xt": "urn:btih:66493eb672af12f5aac55691a031ccf0531adcfe",
    "dn": "Dark Matter S02E13 1080p WEB-DL HEVC DD5.1 x265",
    "tr": [
      "udp://exodus.desync.com:6969",
      "udp://open.demonii.com:1337",
      "udp://tracker.coppersurfer.tk:6969",
      "udp://tracker.leechers-paradise.org:6969",
      "udp://zer0day.ch:1337"
    ],
    "infoHash": "66493eb672af12f5aac55691a031ccf0531adcfe",
    "infoHashBuffer": {
      "type": "Buffer",
      "data": [
        102,
        73,
        62,
        182,
        114,
        175,
        18,
        245,
        170,
        197,
        86,
        145,
        160,
        49,
        204,
        240,
        83,
        26,
        220,
        254
      ]
    },
    "name": "Dark Matter S02E13 1080p WEB-DL HEVC DD5.1 x265",
    "announce": [
      "udp://exodus.desync.com:6969",
      "udp://open.demonii.com:1337",
      "udp://tracker.coppersurfer.tk:6969",
      "udp://tracker.leechers-paradise.org:6969",
      "udp://zer0day.ch:1337"
    ],
    "urlList": []
  },
  "previous": 36,
  "peers": 35,
  "last_updated": "2016-12-27T02:27:02.108Z"
}